<svg width="18" height="18" viewBox="0 0 18 18" fill="none" xmlns="http://www.w3.org/2000/svg">
<path d="M17.73 13.52C17.73 13.52 17.73 13.45 17.73 13.41V4.58999C17.7296 4.47524 17.7022 4.36218 17.65 4.25999C17.5763 4.10119 17.4488 3.97364 17.29 3.89999L9.28998 0.319995C9.19261 0.275796 9.08691 0.25293 8.97998 0.25293C8.87305 0.25293 8.76735 0.275796 8.66998 0.319995L0.669981 3.89999C0.541316 3.96474 0.43252 4.06303 0.355075 4.18448C0.277631 4.30592 0.234412 4.44603 0.22998 4.58999V13.41C0.237457 13.5532 0.281918 13.6921 0.359031 13.813C0.436143 13.9339 0.543275 14.0328 0.669981 14.1L8.66998 17.68C8.7668 17.7262 8.87271 17.7501 8.97998 17.7501C9.08725 17.7501 9.19316 17.7262 9.28998 17.68L17.29 14.1C17.4055 14.0471 17.5061 13.9665 17.5829 13.8653C17.6596 13.7641 17.7102 13.6455 17.73 13.52ZM1.72998 5.73999L8.22998 8.65999V15.84L1.72998 12.93V5.73999ZM9.72998 8.65999L16.23 5.73999V12.93L9.72998 15.84V8.65999ZM8.99998 1.81999L15.17 4.58999L8.99998 7.35L2.82998 4.58999L8.99998 1.81999Z" fill="white"/>
</svg>
