<svg width="14" height="15" viewBox="0 0 14 15" fill="none" xmlns="http://www.w3.org/2000/svg">
<path d="M11.7658 2.4501C11.7286 2.37842 11.6725 2.31826 11.6037 2.27611C11.5348 2.23396 11.4557 2.21143 11.375 2.21094H2.62496C2.54421 2.21143 2.46513 2.23396 2.39625 2.27611C2.32737 2.31826 2.27131 2.37842 2.23413 2.4501C2.19701 2.52199 2.18113 2.60296 2.18837 2.68354C2.1956 2.76412 2.22563 2.84098 2.27496 2.9051L5.39579 7.16927V11.6901C5.3973 11.8057 5.44388 11.9161 5.5256 11.9978C5.60733 12.0795 5.71773 12.1261 5.83329 12.1276H8.16663C8.28219 12.1261 8.39259 12.0795 8.47431 11.9978C8.55604 11.9161 8.60262 11.8057 8.60413 11.6901V7.16927L11.725 2.9051C11.7743 2.84098 11.8043 2.76412 11.8116 2.68354C11.8188 2.60296 11.8029 2.52199 11.7658 2.4501Z" fill="white"/>
</svg>
