<svg width="14" height="15" viewBox="0 0 14 15" fill="none" xmlns="http://www.w3.org/2000/svg">
<g clip-path="url(#clip0_5630_81)">
<path fill-rule="evenodd" clip-rule="evenodd" d="M11.7419 4.68555V0.846853C11.7419 0.66719 11.6705 0.494886 11.5435 0.367845C11.4165 0.240804 11.2442 0.169434 11.0645 0.169434C10.8848 0.169434 10.7125 0.240804 10.5855 0.367845C10.4584 0.494886 10.3871 0.66719 10.3871 0.846853V4.68555H9.70965C9.52998 4.68555 9.35768 4.75692 9.23064 4.88396C9.1036 5.011 9.03223 5.1833 9.03223 5.36297C9.03223 5.54263 9.1036 5.71493 9.23064 5.84197C9.35768 5.96901 9.52998 6.04039 9.70965 6.04039H11.0634L11.0645 6.0404L11.0656 6.04039H12.4193C12.599 6.04039 12.7713 5.96901 12.8983 5.84197C13.0254 5.71493 13.0967 5.54263 13.0967 5.36297C13.0967 5.1833 13.0254 5.011 12.8983 4.88396C12.7713 4.75692 12.599 4.68555 12.4193 4.68555H11.7419ZM11.0645 14.1694C10.8856 14.1671 10.7146 14.095 10.5881 13.9684C10.4615 13.8419 10.3894 13.6709 10.3871 13.492V7.16942C10.3871 6.98976 10.4584 6.81746 10.5855 6.69042C10.7125 6.56338 10.8848 6.492 11.0645 6.492C11.2442 6.492 11.4165 6.56338 11.5435 6.69042C11.6705 6.81746 11.7419 6.98976 11.7419 7.16942V13.492C11.7396 13.6709 11.6674 13.8419 11.5409 13.9684C11.4144 14.095 11.2434 14.1671 11.0645 14.1694ZM2.93546 14.1694C2.75653 14.1671 2.58558 14.095 2.45904 13.9684C2.3325 13.8419 2.26038 13.6709 2.25804 13.492V7.16942C2.25804 6.98976 2.32941 6.81746 2.45645 6.69042C2.58349 6.56338 2.7558 6.492 2.93546 6.492C3.11512 6.492 3.28743 6.56338 3.41447 6.69042C3.54151 6.81746 3.61288 6.98976 3.61288 7.16942V13.492C3.61054 13.6709 3.53842 13.8419 3.41188 13.9684C3.28534 14.095 3.1144 14.1671 2.93546 14.1694ZM3.61288 0.846853V4.68555H4.29029C4.46996 4.68555 4.64226 4.75692 4.7693 4.88396C4.89634 5.011 4.96771 5.1833 4.96771 5.36297C4.96771 5.54263 4.89634 5.71493 4.7693 5.84197C4.64226 5.96901 4.46996 6.04039 4.29029 6.04039H2.93659L2.93546 6.0404L2.93433 6.04039H1.58062C1.40095 6.04039 1.22865 5.96901 1.10161 5.84197C0.974569 5.71493 0.903198 5.54263 0.903198 5.36297C0.903198 5.1833 0.974569 5.011 1.10161 4.88396C1.22865 4.75692 1.40095 4.68555 1.58062 4.68555H2.25804V0.846853C2.25804 0.66719 2.32941 0.494886 2.45645 0.367845C2.58349 0.240804 2.7558 0.169434 2.93546 0.169434C3.11512 0.169434 3.28743 0.240804 3.41447 0.367845C3.54151 0.494886 3.61288 0.66719 3.61288 0.846853ZM6.52355 13.9684C6.65009 14.095 6.82104 14.1671 6.99997 14.1694C7.17891 14.1671 7.34986 14.095 7.4764 13.9684C7.60293 13.8419 7.67506 13.671 7.67739 13.492V10.7823C7.67739 10.6027 7.60602 10.4304 7.47898 10.3033C7.35194 10.1763 7.17964 10.1049 6.99997 10.1049C6.82031 10.1049 6.64801 10.1763 6.52097 10.3033C6.39393 10.4304 6.32256 10.6027 6.32256 10.7823V13.492C6.32489 13.671 6.39702 13.8419 6.52355 13.9684ZM7.67739 8.29846V0.846853C7.67739 0.66719 7.60602 0.494886 7.47898 0.367845C7.35194 0.240804 7.17964 0.169434 6.99997 0.169434C6.82031 0.169434 6.64801 0.240804 6.52097 0.367845C6.39393 0.494886 6.32256 0.66719 6.32256 0.846853V8.29846H5.64513C5.46547 8.29846 5.29317 8.36983 5.16612 8.49687C5.03908 8.62391 4.96771 8.79622 4.96771 8.97588C4.96771 9.15554 5.03908 9.32785 5.16612 9.45489C5.29317 9.58193 5.46547 9.6533 5.64513 9.6533H6.99969C6.99978 9.6533 6.99988 9.6533 6.99997 9.6533C7.00007 9.6533 7.00017 9.6533 7.00026 9.6533H8.35481C8.53447 9.6533 8.70678 9.58193 8.83382 9.45489C8.96086 9.32785 9.03223 9.15554 9.03223 8.97588C9.03223 8.79622 8.96086 8.62391 8.83382 8.49687C8.70678 8.36983 8.53447 8.29846 8.35481 8.29846H7.67739Z" fill="white"/>
</g>
<defs>
<clipPath id="clip0_5630_81">
<rect width="14" height="14" fill="white" transform="translate(0 0.169434)"/>
</clipPath>
</defs>
</svg>
